<svg aria-hidden="true" style="position: absolute; width: 0; height: 0; overflow: hidden;" version="1.1" xmlns="http://www.w3.org/2000/svg" xmlns:xlink="http://www.w3.org/1999/xlink">
<defs>
<symbol id="icon-iphone" viewBox="0 0 20 32">
<path d="M17.005 0h-14.009c-1.655 0-3.002 1.347-3.002 3.002v26.017c0 1.655 1.347 3.002 3.002 3.002h14.009c1.655 0 3.002-1.347 3.002-3.002v-26.017c0-1.655-1.347-3.002-3.002-3.002zM2.995 2.001h14.009c0.553 0 1.001 0.448 1.001 1.001v0 21.014h-16.010v-21.014c0-0.553 0.448-1.001 1.001-1.001v0zM17.005 30.020h-14.009c-0.553 0-1.001-0.448-1.001-1.001v0-3.002h16.010v3.002c0 0.553-0.448 1.001-1.001 1.001v0z"></path>
</symbol>
<symbol id="icon-message" viewBox="0 0 43 32">
<path d="M38.692-0.006h-34.689c-2.207 0-4.003 1.796-4.003 4.003v24.016c0 2.207 1.796 4.003 4.003 4.003h34.689c2.207 0 4.003-1.796 4.003-4.003v-24.016c0-2.207-1.796-4.003-4.003-4.003zM38.692 2.663c0.181 0 0.355 0.037 0.512 0.104l-17.857 15.477-17.857-15.477c0.151-0.065 0.327-0.104 0.512-0.104h34.689zM38.692 29.347h-34.689c-0.737 0-1.334-0.597-1.334-1.334v0-22.428l17.804 15.431c0.233 0.203 0.54 0.327 0.875 0.327s0.642-0.124 0.877-0.329l-0.002 0.001 17.804-15.431v22.428c0 0.737-0.597 1.334-1.334 1.334v0z"></path>
</symbol>
</defs>
</svg>
